<?xml version="1.0" encoding="UTF-8" standalone="no"?>
<!-- Created with Inkscape (http://www.inkscape.org/) -->

<svg
   xmlns:dc="http://purl.org/dc/elements/1.1/"
   xmlns:cc="http://creativecommons.org/ns#"
   xmlns:rdf="http://www.w3.org/1999/02/22-rdf-syntax-ns#"
   xmlns:svg="http://www.w3.org/2000/svg"
   xmlns="http://www.w3.org/2000/svg"
   xmlns:sodipodi="http://sodipodi.sourceforge.net/DTD/sodipodi-0.dtd"
   xmlns:inkscape="http://www.inkscape.org/namespaces/inkscape"
   width="137.07953mm"
   height="137.07898mm"
   viewBox="0 0 485.71487 485.71292"
   id="svg2"
   version="1.1"
   inkscape:version="0.91 r13725"
   sodipodi:docname="disliked.svg">
  <defs
     id="defs4" />
  <sodipodi:namedview
     id="base"
     pagecolor="#ffffff"
     bordercolor="#666666"
     borderopacity="1.0"
     inkscape:pageopacity="0.0"
     inkscape:pageshadow="2"
     inkscape:zoom="0.98994949"
     inkscape:cx="-123.97153"
     inkscape:cy="193.14187"
     inkscape:document-units="px"
     inkscape:current-layer="layer1"
     showgrid="false"
     inkscape:window-width="1600"
     inkscape:window-height="837"
     inkscape:window-x="-8"
     inkscape:window-y="1072"
     inkscape:window-maximized="1"
     fit-margin-top="0"
     fit-margin-left="0"
     fit-margin-right="0"
     fit-margin-bottom="0" />
  <metadata
     id="metadata7">
    <rdf:RDF>
      <cc:Work
         rdf:about="">
        <dc:format>image/svg+xml</dc:format>
        <dc:type
           rdf:resource="http://purl.org/dc/dcmitype/StillImage" />
        <dc:title></dc:title>
      </cc:Work>
    </rdf:RDF>
  </metadata>
  <g
     inkscape:label="Ebene 1"
     inkscape:groupmode="layer"
     id="layer1"
     transform="translate(-59.999995,-149.50585)">
    <path
       style="opacity:1;fill:#c98500;fill-opacity:1;stroke:#646464;stroke-width:0;stroke-linecap:round;stroke-linejoin:round;stroke-miterlimit:4;stroke-dasharray:none;stroke-dashoffset:0;stroke-opacity:1"
       d="M 302.85742,149.50586 A 242.85715,242.85715 0 0 0 60,392.36133 242.85715,242.85715 0 0 0 302.85742,635.21875 242.85715,242.85715 0 0 0 545.71484,392.36133 242.85715,242.85715 0 0 0 302.85742,149.50586 Z m 0,46.68164 c 16.62,0 30,14.65456 30,32.85742 l 0,197.14258 c 0,18.20285 -13.38,32.85742 -30,32.85742 -16.61999,0 -30,-14.65457 -30,-32.85742 l 0,-197.14258 c 0,-18.20286 13.38001,-32.85742 30,-32.85742 z m 0,300.39258 a 39.999996,39.999996 0 0 1 40,40 39.999996,39.999996 0 0 1 -40,40 39.999996,39.999996 0 0 1 -40,-40 39.999996,39.999996 0 0 1 40,-40 z"
       id="path4136"
       inkscape:connector-curvature="0" />
  </g>
</svg>
