<?xml version="1.0" encoding="UTF-8" standalone="no"?>
<!-- Created with Inkscape (http://www.inkscape.org/) -->

<svg
   xmlns:dc="http://purl.org/dc/elements/1.1/"
   xmlns:cc="http://creativecommons.org/ns#"
   xmlns:rdf="http://www.w3.org/1999/02/22-rdf-syntax-ns#"
   xmlns:svg="http://www.w3.org/2000/svg"
   xmlns="http://www.w3.org/2000/svg"
   xmlns:sodipodi="http://sodipodi.sourceforge.net/DTD/sodipodi-0.dtd"
   xmlns:inkscape="http://www.inkscape.org/namespaces/inkscape"
   width="2000mm"
   height="1000mm"
   viewBox="0 0 7086.6142 3543.3071"
   id="svg2"
   version="1.1"
   inkscape:version="0.91 r13725"
   sodipodi:docname="logo.svg"
   inkscape:export-filename="D:\Dokumente\privat\Go\src\GroupMatcher\static\logo.png"
   inkscape:export-xdpi="90"
   inkscape:export-ydpi="90">
  <defs
     id="defs4" />
  <sodipodi:namedview
     id="base"
     pagecolor="#ffffff"
     bordercolor="#666666"
     borderopacity="1.0"
     inkscape:pageopacity="0.0"
     inkscape:pageshadow="2"
     inkscape:zoom="0.25000001"
     inkscape:cx="3257.1668"
     inkscape:cy="1753.0441"
     inkscape:document-units="px"
     inkscape:current-layer="layer1"
     showgrid="false"
     inkscape:window-width="1600"
     inkscape:window-height="837"
     inkscape:window-x="-8"
     inkscape:window-y="1072"
     inkscape:window-maximized="1" />
  <metadata
     id="metadata7">
    <rdf:RDF>
      <cc:Work
         rdf:about="">
        <dc:format>image/svg+xml</dc:format>
        <dc:type
           rdf:resource="http://purl.org/dc/dcmitype/StillImage" />
        <dc:title />
      </cc:Work>
    </rdf:RDF>
  </metadata>
  <g
     inkscape:label="Ebene 1"
     inkscape:groupmode="layer"
     id="layer1"
     transform="translate(0,2490.9449)">
    <path
       style="font-style:normal;font-variant:normal;font-weight:300;font-stretch:normal;font-size:medium;line-height:125%;font-family:'Yu Gothic';-inkscape-font-specification:'Yu Gothic, Light';text-align:start;letter-spacing:0px;word-spacing:0px;writing-mode:lr-tb;text-anchor:start;fill:#232c35;fill-opacity:1;stroke:none;stroke-width:1px;stroke-linecap:butt;stroke-linejoin:miter;stroke-opacity:1;opacity:1"
       d="M 2042.7012 1194.666 C 1968.7774 1315.705 1931.8047 1466.7105 1931.8047 1647.6973 C 1931.8047 1853.3857 1978.4971 2020.6221 2071.8809 2149.4062 C 2175.0303 2291.6182 2312.0547 2362.7227 2482.9531 2362.7227 C 2570.2334 2362.7227 2647.747 2341.667 2715.4961 2299.5527 C 2794.2314 2250.7247 2853.4365 2177.1768 2893.1094 2078.9102 L 2902.2637 2338.0039 L 2962.6895 2338.0039 L 2962.6895 1751.8789 L 2940.166 1751.8789 C 2923.8498 1755.3675 2907.5179 1758.7417 2891.1621 1761.9316 C 2889.5136 1903.0366 2863.6318 2018.483 2813.457 2108.207 C 2743.877 2231.4981 2633.71 2293.1426 2482.9531 2293.1426 C 2353.5586 2293.1426 2247.0517 2243.3994 2163.4336 2143.9121 C 2063.9463 2026.1142 2014.2031 1860.0986 2014.2031 1645.8652 C 2014.2031 1573.3386 2020.2639 1506.1279 2032.3867 1444.2324 C 2022.7969 1407.429 2018.1083 1369.3193 2018.0273 1331.3184 C 2017.2746 1284.6278 2026.0058 1238.1416 2042.7012 1194.666 z "
       id="path3341"
       transform="translate(0,-2490.9449)"
       inkscape:export-xdpi="90"
       inkscape:export-ydpi="90" />
    <path
       style="font-style:normal;font-variant:normal;font-weight:300;font-stretch:normal;font-size:medium;line-height:125%;font-family:'Yu Gothic';-inkscape-font-specification:'Yu Gothic, Light';text-align:start;letter-spacing:0px;word-spacing:0px;writing-mode:lr-tb;text-anchor:start;fill:#232c35;fill-opacity:1;stroke:none;stroke-width:1px;stroke-linecap:butt;stroke-linejoin:miter;stroke-opacity:1;opacity:1"
       d="M 3317.9141 958.30469 L 3317.9141 1621.7637 C 3343.0694 1623.1215 3368.1506 1625.7607 3392.9863 1629.9648 L 3392.9863 1400.5039 L 3389.3242 1024.2227 L 3402.1426 1024.2227 C 3445.4775 1145.0723 3491.8643 1268.669 3541.3027 1395.0117 L 3633.3164 1629.0215 L 3712.8965 1629.0215 L 3448.834 958.30469 L 3317.9141 958.30469 z M 4475.1406 958.30469 L 4107.0977 1893.9727 C 4069.6752 1988.6295 4029.0166 2100.4728 3985.1426 2229.373 C 3988.4661 2237.0954 3992.219 2244.6178 3996.4238 2251.8789 L 4045.748 2251.8789 L 4382.6719 1395.0117 C 4427.8379 1280.876 4474.2246 1157.2793 4521.832 1024.2227 L 4534.6484 1024.2227 L 4530.9863 1400.5039 L 4530.9863 2338.0039 L 4607.8906 2338.0039 L 4607.8906 958.30469 L 4475.1406 958.30469 z M 3356.3184 1680.0547 C 3349.4902 1680.0388 3342.6702 1680.128 3335.8672 1680.4688 C 3329.8739 1680.8187 3323.8918 1681.2421 3317.9141 1681.6992 L 3317.9141 2338.0039 L 3392.9863 2338.0039 L 3392.9863 1680.2773 C 3380.7737 1680.4392 3368.5333 1680.083 3356.3184 1680.0547 z "
       transform="translate(0,-2490.9449)"
       id="path3343"
       inkscape:export-xdpi="90"
       inkscape:export-ydpi="90" />
    <path
       style="opacity:1;fill:#57acca;fill-opacity:1"
       d="m 2605.2465,-724.6297 c -20.7026,-1.5601 -71.7317,-8.2867 -86.8504,-11.4485 -3.7678,-0.7879 -7.2318,-2.5765 -7.6978,-3.9746 -0.6732,-2.0195 4.0228,-2.2145 22.8504,-0.9486 38.7875,2.608 126.2505,1.4288 162.6978,-2.1936 68.7979,-6.8375 129.5751,-17.8195 267,-48.2449 191.7635,-42.4558 248.2615,-50.9629 338.4818,-50.9664 41.0274,0 101.6925,4.5391 105.136,7.8693 0.8898,0.8606 -13.9602,2.1931 -33,2.9613 -86.8585,3.5042 -149.3511,13.752 -334.6178,54.8719 -160.2107,35.5588 -221.7821,46.0041 -308,52.2509 -32.1765,2.3312 -93.8674,2.2447 -126,-0.1768 z"
       id="path4350"
       inkscape:connector-curvature="0"
       inkscape:export-xdpi="90"
       inkscape:export-ydpi="90" />
    <path
       style="opacity:1;fill:#57acca;fill-opacity:1"
       d="m 4039.516,-146.11108 c -35.3228,-18.4981 -59.7888,-35.8594 -82.3909,-58.4651 -28.8294,-28.8342 -41.3916,-50.4039 -62.8929,-107.9895 -68.0842,-182.3457 -138.4,-302.8057 -226.6674,-388.3108 -51.801,-50.1798 -106.0706,-85.3399 -167.4993,-108.5189 -23.8947,-9.0162 -28.5694,-13.5485 -11.7122,-11.3552 52.3162,6.8067 111.006,27.0543 160.7056,55.4424 46.8689,26.7712 104.0074,77.2569 140.7105,124.3273 67.3643,86.3924 113.4393,179.9003 167.4492,339.8338 11.6237,34.4197 24.184,68.0434 27.9118,74.7192 15.4907,27.7409 43.424,59.5647 70.4872,80.3046 13.0878,10.0298 17.2173,14.6398 13,14.5122 -0.825,-0.025 -13.9207,-6.5499 -29.1016,-14.5 z"
       id="path4354"
       inkscape:connector-curvature="0"
       inkscape:export-xdpi="90"
       inkscape:export-ydpi="90" />
    <path
       style="opacity:1;fill:#57acca;fill-opacity:1"
       d="m 2067.0798,-1013.4304 c -22.5375,-69.2686 -29.9033,-133.714 -22.1615,-193.8971 18.4456,-143.3935 121.5571,-259.6036 274.9973,-309.9311 34.5913,-11.3457 68.9016,-18.5143 108.5,-22.6693 16.5268,-1.7341 74.3173,-1.7448 91,-0.017 81.8061,8.4735 151.157,32.8397 215.5,75.7153 69.602,46.3802 123.2207,109.1531 163.0739,190.9158 9.6902,19.8803 23.5005,52.8285 23.3635,55.7398 -0.035,0.7315 -2.2033,-3.17 -4.8197,-8.67 -28.3257,-59.5442 -72.0044,-116.8863 -121.1688,-159.0721 -104.1061,-89.3291 -247.0019,-127.1824 -388.4489,-102.9005 -117.4805,20.1676 -218.8351,79.9702 -282.1409,166.4726 -26.9419,36.814 -47.3348,81.0418 -57.8666,125.5 -6.8532,28.9295 -8.9967,49.3612 -8.97,85.5 0.028,37.3209 2.4088,59.4828 10.0364,93.4107 1.3491,6.0009 2.2717,11.0919 2.0502,11.3134 -0.2214,0.2215 -1.5466,-3.1133 -2.9449,-7.4107 z"
       id="path4367"
       inkscape:connector-curvature="0"
       inkscape:export-xdpi="90"
       inkscape:export-ydpi="90" />
    <text
       xml:space="preserve"
       style="font-style:normal;font-variant:normal;font-weight:300;font-stretch:normal;font-size:218.75px;line-height:40.99988937%;font-family:'Yu Gothic';-inkscape-font-specification:'Yu Gothic, Light';text-align:start;letter-spacing:0px;word-spacing:0px;writing-mode:lr-tb;text-anchor:start;fill:#232c35;fill-opacity:1;stroke:none;stroke-width:1px;stroke-linecap:butt;stroke-linejoin:miter;stroke-opacity:1;opacity:1;"
       x="1919.0941"
       y="128.36224"
       id="text4411"
       sodipodi:linespacing="40.999889%"
       inkscape:export-xdpi="90"
       inkscape:export-ydpi="90"><tspan
         sodipodi:role="line"
         id="tspan4413"
         x="1919.0941"
         y="128.36224"
         style="line-height:40.99988937%;letter-spacing:74px;fill:#232c35;fill-opacity:1;">GROUP MATCHER</tspan></text>
  </g>
</svg>
